<?xml version="1.0" encoding="UTF-8"?>
<svg id="Layer_1" xmlns="http://www.w3.org/2000/svg" viewBox="0 0 594.94 159.8">
  <defs>
    <style>
      .cls-1 {
        fill: #fff;
      }
    </style>
  </defs>
  <g>
    <path class="cls-1" d="M79.9,81.28c-5.69-2.01-13.36-3.53-23.01-4.57l-18.1-2.07c-9.54-1.15-16.26-3.02-20.17-5.6-3.91-2.59-5.86-6.29-5.86-11.12,0-6.09,2.81-10.74,8.45-13.96,5.63-3.22,13.67-4.83,24.13-4.83,7.35,0,13.88,1.01,19.57,3.02,5.69,2.01,10.28,4.83,13.79,8.45,3.5,3.62,5.54,7.79,6.12,12.5h9.48c-.35-6.43-2.65-12.07-6.9-16.89-4.25-4.83-9.97-8.62-17.15-11.38-7.18-2.76-15.37-4.14-24.56-4.14-8.39,0-15.8,1.09-22.24,3.28-6.44,2.18-11.44,5.34-15,9.48-3.56,4.14-5.34,9.14-5.34,15,0,4.71,1.18,8.76,3.53,12.15,2.35,3.39,6.12,6.15,11.29,8.27,5.17,2.13,11.89,3.65,20.17,4.57l18.27,2.07c11.26,1.27,19.02,3.1,23.27,5.52,4.25,2.41,6.38,6.15,6.38,11.2,0,6.09-3.33,11.06-10,14.91-6.67,3.85-15.4,5.77-26.2,5.77-7.24,0-13.79-1.12-19.65-3.36-5.86-2.24-10.6-5.34-14.22-9.31-3.62-3.96-5.78-8.53-6.46-13.7H0c.35,6.9,2.67,12.96,6.98,18.19,4.31,5.23,10.17,9.31,17.58,12.24,7.41,2.93,15.83,4.4,25.25,4.4s17.07-1.24,23.96-3.71c6.9-2.47,12.27-5.89,16.12-10.26,3.85-4.37,5.77-9.42,5.77-15.17,0-5.28-1.21-9.59-3.62-12.93-2.41-3.33-6.46-6-12.15-8.02Z"/>
    <path class="cls-1" d="M155.16,122.05l-44.81-89.3h-10.34l47.4,93.43h5.67l-5.49,10.86c-2.41,4.83-5.37,8.39-8.88,10.69-3.51,2.3-7.79,3.45-12.84,3.45-4.25,0-7.96-.49-11.12-1.47-3.16-.98-6.41-2.5-9.74-4.57v8.1c3.56,2.3,6.95,3.96,10.17,5,3.22,1.03,6.9,1.55,11.03,1.55,4.37,0,8.3-.69,11.81-2.07,3.5-1.38,6.64-3.45,9.39-6.21,2.76-2.76,5.23-6.21,7.41-10.34l55.51-108.43h-10l-45.17,89.3Z"/>
    <path class="cls-1" d="M303.73,36.03c-6.21-3.56-13.79-5.34-22.75-5.34s-16.49,1.93-23.27,5.77c-6.78,3.85-12.18,9.22-16.2,16.12-.01.02-.02.04-.03.06-1.02,1.75-3.65,1.31-3.99-.69l-3.22-19.19h-9.31l5.17,29.48v67.06h9.31v-47.75c0-8.39,1.64-15.77,4.91-22.15,3.28-6.38,7.87-11.35,13.79-14.91,5.92-3.56,12.84-5.34,20.77-5.34,11.38,0,19.99,3.31,25.86,9.91,5.86,6.61,8.79,16.41,8.79,29.39v50.85h9.31v-52.75c0-9.77-1.64-18.07-4.91-24.91-3.27-6.84-8.01-12.04-14.22-15.6Z"/>
    <path class="cls-1" d="M373.44,44.65c6.43-3.45,14.02-5.17,22.75-5.17,10.69,0,19.82,2.59,27.41,7.76,7.59,5.17,12.35,12.13,14.31,20.86h10c-1.38-7.47-4.48-13.99-9.31-19.57-4.83-5.57-10.89-9.94-18.19-13.1-7.3-3.16-15.37-4.74-24.22-4.74-10.34,0-19.48,2.13-27.41,6.38-7.93,4.25-14.14,10.14-18.62,17.67-4.48,7.53-6.72,16.29-6.72,26.29s2.24,18.62,6.72,26.2c4.48,7.58,10.69,13.5,18.62,17.76,7.93,4.25,17.07,6.38,27.41,6.38,8.85,0,16.92-1.58,24.22-4.74,7.3-3.16,13.36-7.56,18.19-13.19,4.83-5.63,7.93-12.12,9.31-19.48h-10c-1.84,8.73-6.55,15.69-14.14,20.86-7.58,5.17-16.78,7.76-27.58,7.76-8.73,0-16.32-1.72-22.75-5.17-6.44-3.45-11.44-8.27-15-14.48-3.56-6.21-5.34-13.5-5.34-21.89s1.78-15.69,5.34-21.89c3.56-6.21,8.56-11.03,15-14.48Z"/>
  </g>
  <path class="cls-1" d="M585.63,4.65v52.07c0,21.1-26.36,30.69-39.92,14.52L488.57,3.07C486.93,1.12,484.53,0,481.99,0h0c-4.74,0-8.58,3.84-8.58,8.58v116.05c0,2.57,2.08,4.65,4.65,4.65h0c2.57,0,4.65-2.08,4.65-4.65v-19.64c0-14.99,6.07-28.96,14.64-37.09,9.79-9.29,22.85-10.95,33.85,2.17l48.58,56.24c1.63,1.89,4,2.97,6.49,2.97h.07c4.74,0,8.58-3.84,8.58-8.58V4.65C594.94,2.08,592.85,0,590.28,0h0C587.71,0,585.63,2.08,585.63,4.65Z"/>
</svg>